<svg fill="none" xmlns="http://www.w3.org/2000/svg" viewBox="0 0 298 345"><path d="m264.59 102.03 5.35-5.35c7.72-7.72 9.13-18.94 3.13-24.93-6-5.99-17.22-4.6-24.93 3.12l-5.4 5.39a148.2 148.2 0 0 0-74.72-31.97V38.7h7.66c10.9 0 19.84-8.7 19.84-19.34S186.59 0 175.68 0h-53.32c-10.91 0-19.84 8.7-19.84 19.36 0 10.64 8.93 19.34 19.84 19.34h7.66v9.59a149.01 149.01 0 0 0-128.84 129 148.93 148.93 0 0 0 92.54 157.08 149.04 149.04 0 0 0 175.33-50.1 148.94 148.94 0 0 0-4.46-182.23ZM149.02 306.19a110.19 110.19 0 0 1-101.79-68 110.12 110.12 0 0 1 80.3-150.17 110.2 110.2 0 0 1 113.1 46.85 110.12 110.12 0 0 1-13.72 139.07 110.18 110.18 0 0 1-77.9 32.25Z" fill="#DEDEDE"/></svg>