<svg xmlns="http://www.w3.org/2000/svg" xmlns:xlink="http://www.w3.org/1999/xlink"><defs><clipPath id="a"><path fill="#fff" d="M0 0h18v18H0z"/></clipPath></defs><symbol id="feedback-left-arrow" viewBox="0 0 22 41"><g fill="none"><path opacity=".3" d="m2.04 20.5 19.7-19.09A.82.82 0 0 0 22 .83a.8.8 0 0 0-.25-.59.86.86 0 0 0-.61-.24.88.88 0 0 0-.6.24L.24 19.91a.83.83 0 0 0-.25.59.81.81 0 0 0 .25.59l20.28 19.67a.9.9 0 0 0 1.09.1c.14-.1.25-.22.31-.38a.8.8 0 0 0-.18-.9L2.05 20.5Z" fill="#283645"/></g></symbol><symbol id="feedback-quotes" viewBox="0 0 79 63"><g fill="none"><path d="M35.15 6.97 30.84 0C28.39 1.48 0 12.06 0 39.13 0 46.27.34 63 18.98 63c11.24 0 14-10.15 14-13.42 0-21.73-21.47-14-21.47-14 0-17.8 19.88-26.51 23.64-28.6Zm43.85 0L74.73 0C72.3 1.48 43.88 12.06 43.88 39.13c0 7.14.34 23.87 19 23.87 11.22 0 13.98-10.15 13.98-13.42 0-21.73-21.47-14-21.47-14 0-17.8 19.92-26.51 23.61-28.6Z" fill="#EFEFEF"/></g></symbol><symbol id="feedback-righ-arrow" viewBox="0 0 22 41"><g fill="none"><path opacity=".3" d="M19.96 20.5.26 39.59a.82.82 0 0 0-.26.58.8.8 0 0 0 .25.59.86.86 0 0 0 .61.24.88.88 0 0 0 .6-.24l20.29-19.67a.83.83 0 0 0 .25-.59.81.81 0 0 0-.25-.59L1.47.24A.9.9 0 0 0 .38.14a.84.84 0 0 0-.31.37.8.8 0 0 0 .18.9l19.7 19.09Z" fill="#283645"/></g></symbol><symbol id="footer-tg-item"><g fill="none"><path d="m15.7 1.2-2.37 11.21c-.18.8-.65.99-1.31.62l-3.63-2.67-1.74 1.68c-.2.2-.36.35-.73.35l.26-3.69 6.71-6.06c.3-.26-.06-.4-.45-.14l-8.3 5.22L.57 6.6c-.78-.24-.8-.77.16-1.15L14.7.07c.65-.24 1.21.14 1 1.13Z" fill="#D22856"/></g></symbol><symbol id="footer-vk-icon" viewBox="0 0 18 18"><g fill="none"><g clip-path="url(#a)"><path fill-rule="evenodd" clip-rule="evenodd" d="M17.59 4.71c.12-.4 0-.71-.6-.71h-1.97c-.5 0-.73.26-.85.55 0 0-1 2.4-2.42 3.95-.46.45-.67.6-.92.6-.13 0-.32-.15-.32-.56V4.71c0-.5-.13-.71-.55-.71h-3.1c-.3 0-.5.23-.5.44 0 .47.71.58.78 1.89v2.85c0 .62-.11.74-.36.74-.67 0-2.3-2.41-3.26-5.17-.18-.53-.37-.75-.87-.75H.68C.1 4 0 4.26 0 4.55c0 .5.67 3.05 3.1 6.41 1.64 2.3 3.93 3.54 6.01 3.54 1.26 0 1.41-.28 1.41-.75V12c0-.55.12-.66.52-.66.29 0 .79.14 1.96 1.25 1.33 1.31 1.55 1.9 2.3 1.9h1.97c.57 0 .85-.28.68-.82a8.36 8.36 0 0 0-1.66-2.27c-.46-.53-1.14-1.1-1.35-1.4-.3-.36-.21-.52 0-.85 0 0 2.4-3.32 2.65-4.45Z" fill="#D22856"/></g></g></symbol><symbol id="footer-yt-icon"><g fill="none"><path d="M1.83 12.8a1.25 1.25 0 0 1-1.28.04 1.1 1.1 0 0 1-.44-.46.97.97 0 0 1-.1-.6V1.22c-.03-.2 0-.41.1-.6C.2.42.35.27.55.16a1.26 1.26 0 0 1 1.28.03l12.4 5.5c1.03.45 1.03 1.17 0 1.62l-12.4 5.5Z" fill="#D22856"/></g></symbol><symbol id="form-checkmark"><g fill="none"><path d="M21.7.28a1.02 1.02 0 0 0-1.42 0L6.7 13.6 1.73 8.73a1.02 1.02 0 0 0-1.1-.22.99.99 0 0 0-.33 1.62l5.68 5.58a1.02 1.02 0 0 0 .72.29c.27 0 .52-.1.71-.29L21.7 1.7A1 1 0 0 0 22 1a.98.98 0 0 0-.3-.72Z" fill="#D22856"/></g></symbol><symbol id="form-mail-icon"><g fill="none"><path d="M14.91 1.68c1.2-.93.91-1.68-.65-1.68H3.73c-1.56 0-1.85.76-.66 1.68l3.75 2.9a3.7 3.7 0 0 0 4.35 0l3.74-2.9Z" fill="#D22856"/><path d="M11.91 6.5 9.7 8.25c-.08.04-.17.08-.26.1l-.1.05c-.1.05-.22.07-.34.09l-.33-.06-.12-.07a1.18 1.18 0 0 1-.24-.13L6.08 6.5l-3.9-2.97C1 2.6 0 3.03 0 4.48v5.86a2.48 2.48 0 0 0 .82 1.87 2.87 2.87 0 0 0 2.01.79h12.32a3.04 3.04 0 0 0 2.02-.78 2.54 2.54 0 0 0 .83-1.88V4.48c0-1.45-1-1.86-2.18-.93L11.91 6.5Z" fill="#D22856"/></g></symbol><symbol id="form-phonr-icon"><g fill="none"><path d="M10.04 0C6.46 0 2.91.6 1.58 1.82A6.4 6.4 0 0 0 0 5.87c0 .21.09.41.25.56.15.15.37.23.59.23l3.24-.25h.08a.86.86 0 0 0 .58-.23.78.78 0 0 0 .24-.56V4.05a.83.83 0 0 1 .26-.62.92.92 0 0 1 .65-.26h8.16c.24 0 .48.09.65.25.18.17.27.4.27.63V5.6c0 .2.09.4.24.55.15.15.36.24.58.24h.09l3.28.25a.88.88 0 0 0 .6-.23.8.8 0 0 0 .24-.56V5.7a6.46 6.46 0 0 0-1.56-3.86C17.2.6 13.62 0 10.04 0Zm0 10.3c-.33 0-.65.1-.93.27a1.6 1.6 0 0 0-.61.71 1.5 1.5 0 0 0 .36 1.73 1.76 1.76 0 0 0 1.82.34c.3-.12.57-.32.75-.58a1.53 1.53 0 0 0-.2-2 1.67 1.67 0 0 0-1.19-.47ZM8.8 6.76v-.97c0-.25-.11-.5-.3-.68a1.066 1.066 0 0 0-1.44 0c-.2.18-.3.43-.3.68v.97l-5.73 5.69a1.93 1.93 0 0 0-.63 1.42v1.58c0 .42.18.83.49 1.12.31.3.74.47 1.18.47h.42v.97a.95.95 0 0 0 .3.7 1.05 1.05 0 0 0 .74.29 1.1 1.1 0 0 0 .74-.29.99.99 0 0 0 .3-.7v-.97h10.91v.97c0 .26.11.51.3.7.2.19.47.29.75.29.27 0 .54-.1.74-.29.2-.19.3-.44.3-.7v-.97h.42a1.75 1.75 0 0 0 1.19-.46 1.58 1.58 0 0 0 .48-1.13v-1.58a1.84 1.84 0 0 0-.62-1.42l-5.65-5.69v-.97a.96.96 0 0 0-.3-.7c-.2-.18-.46-.29-.74-.29-.28 0-.54.1-.74.3-.2.18-.3.43-.3.7v.96H8.78Zm1.25 1.93c.66 0 1.3.19 1.86.54.55.34.98.84 1.23 1.42a3.01 3.01 0 0 1-.73 3.45 3.52 3.52 0 0 1-3.64.69 3.31 3.31 0 0 1-1.5-1.17 3.05 3.05 0 0 1 .42-4c.62-.6 1.47-.93 2.36-.93Z" fill="#D22856"/></g></symbol><symbol id="htmlacademy" viewBox="0 0 60 60"><path fill="#2E368F" d="M30.2 5H30L10.3 7.1v36.2L30 55l19.7-11.7V7.1L30.2 5zm17 36.8L30 52 12.8 41.8V27l17.1 10.2V39l-11.7-7v1.8L30 40.9v1.9l-11.8-7v1.8l11.8 7 11.9-7.1v-7.6l5.3-3.2v15.1zm-.1-17-4.7 2.8-2.2 1.3-10.3-6.1v1.8l8.8 5.3h-.1l-.2.1-1.3.7-7.3-4.3v1.8l5.8 3.4-1.4.9-4.3-2.6v1.8l2.9 1.7-2.9 1.7-17-10.1 17-10.2 17.2 10zm.1-1.8L29.9 12.8 12.8 23V9.4L30 7.6l17.2 1.8V23z"/></symbol><symbol id="intro-android-logo"><g fill="none"><path d="M34.886 14.062H8.114v19.133c-.011.913.332 1.795.96 2.468a3.697 3.697 0 0 0 2.422 1.159v7.453c.044.737.374 1.43.922 1.936a2.986 2.986 0 0 0 2.026.789c.753 0 1.478-.282 2.026-.789.548-.506.878-1.199.922-1.936v-7.433h8.236v7.433c.045.737.375 1.43.922 1.936a2.985 2.985 0 0 0 2.026.789c.754 0 1.478-.282 2.026-.789.548-.506.878-1.199.922-1.936v-7.453a3.707 3.707 0 0 0 2.426-1.158c.63-.673.975-1.555.967-2.468V14.402l-.03-.34ZM2.953 15.745c.78 0 1.53.304 2.081.845.552.54.862 1.275.862 2.04v12.402c.001.38-.074.756-.22 1.107a2.88 2.88 0 0 1-.638.94 2.947 2.947 0 0 1-.956.627 2.995 2.995 0 0 1-3.217-.627A2.866 2.866 0 0 1 0 31.032V18.63c0-.38.076-.756.225-1.107.149-.35.366-.669.64-.937.275-.268.6-.48.959-.625a2.995 2.995 0 0 1 1.13-.216ZM40.057 15.745c.78 0 1.53.304 2.081.845.552.54.862 1.275.862 2.04v12.402c.001.38-.074.756-.221 1.107-.147.351-.364.67-.637.94a2.947 2.947 0 0 1-.956.627 2.994 2.994 0 0 1-3.217-.627 2.867 2.867 0 0 1-.865-2.047V18.63c0-.38.076-.756.225-1.107.148-.35.366-.669.64-.937.275-.268.6-.48.959-.625a2.995 2.995 0 0 1 1.129-.216ZM8.175 12.058h26.568a10.404 10.404 0 0 0-3.26-7.293L34.049.498a.307.307 0 0 0-.122-.461.322.322 0 0 0-.42.11l-2.42 4.157A16.708 16.708 0 0 0 21.458.898a16.977 16.977 0 0 0-9.575 3.406L9.504.187a.325.325 0 0 0-.184-.16.333.333 0 0 0-.246.01.315.315 0 0 0-.112.42l2.493 4.238a10.443 10.443 0 0 0-3.28 7.363Zm17.699-5.21c0-.398.161-.78.449-1.062.287-.281.677-.44 1.083-.44.407 0 .797.159 1.084.44.288.282.45.664.45 1.063 0 .398-.162.78-.45 1.062-.287.282-.677.44-1.084.44-.406 0-.796-.158-1.083-.44a1.488 1.488 0 0 1-.45-1.062Zm-11.384 0c0-.398.162-.78.449-1.062.287-.281.677-.44 1.084-.44.406 0 .796.159 1.084.44.287.282.449.664.449 1.063 0 .398-.162.78-.45 1.062-.287.282-.677.44-1.083.44-.407 0-.797-.158-1.084-.44a1.488 1.488 0 0 1-.449-1.062Z" fill="#A4C639"/></g></symbol><symbol id="intro-apple-logo"><g fill="none"><path d="M39.245 29.74a12.09 12.09 0 0 0 2.127 6.787A12.668 12.668 0 0 0 47 41.063a29.794 29.794 0 0 1-4 7.96c-2.401 3.413-4.905 6.816-8.844 6.904-3.938.09-5.088-2.219-9.526-2.219-4.437 0-5.8 2.15-9.465 2.288-3.663.139-6.686-3.718-9.088-7.111-4.956-6.905-8.752-19.639-3.664-28.2a13.925 13.925 0 0 1 5.024-5.037 14.489 14.489 0 0 1 6.935-1.977c3.724-.069 7.246 2.427 9.526 2.427 2.28 0 6.564-3.009 11.062-2.565 2.084.073 4.121.613 5.954 1.576a13.387 13.387 0 0 1 4.61 3.977c-.275.168-6.31 3.571-6.249 10.653h-.03ZM31.978 8.936C34.16 6.46 35.238 3.247 34.981 0c-3.305.302-6.364 1.82-8.55 4.241-1.862 2.092-3.5 5.445-3.053 8.66 3.247.247 6.555-1.597 8.57-3.945" fill="#fff"/></g></symbol><symbol id="intro-microsoft-logo"><g fill="none"><path d="M20.908 19.524H0V0h20.908v19.524Z" fill="#F05423"/><path d="M44 19.524H23.092V0H44v19.524Z" fill="#84C441"/><path d="M20.908 41H0V21.476h20.908V41Z" fill="#2DABE2"/><path d="M44 41H23.092V21.476H44V41Z" fill="#F9BC15"/></g></symbol><symbol id="price-feature-no"><g fill="none"><path d="m15.644 13.507 10.91-10.92a1.503 1.503 0 0 0 0-2.14 1.524 1.524 0 0 0-2.14 0l-10.909 10.92L2.586.447a1.504 1.504 0 0 0-2.14 0 1.524 1.524 0 0 0 0 2.14l10.92 10.92-10.92 10.91a1.503 1.503 0 0 0 0 2.139 1.514 1.514 0 0 0 2.14 0l10.919-10.91 10.909 10.91a1.514 1.514 0 0 0 2.14-2.14l-10.91-10.91Z" fill="#F25B26"/></g></symbol><symbol id="price-feature-yes"><g fill="none"><path d="M30.556.43a1.54 1.54 0 0 0-.499-.318 1.607 1.607 0 0 0-1.179 0 1.54 1.54 0 0 0-.499.318L10.374 17.496 2.578 10.11a1.582 1.582 0 0 0-1.072-.39 1.576 1.576 0 0 0-1.057.425c-.28.266-.442.625-.449 1.001-.007.377.14.74.411 1.016l8.88 8.412c.142.135.31.243.497.316a1.596 1.596 0 0 0 1.67-.316L30.556 2.482c.284-.274.444-.642.444-1.026S30.84.703 30.556.43Z" fill="#3DC644"/></g></symbol><symbol id="sprite"/><symbol id="timer-desktop" viewBox="0 0 298 345"><g fill="none"><path d="m264.59 102.03 5.35-5.35c7.72-7.72 9.13-18.94 3.13-24.93-6-5.99-17.22-4.6-24.93 3.12l-5.4 5.39a148.2 148.2 0 0 0-74.72-31.97V38.7h7.66c10.9 0 19.84-8.7 19.84-19.34S186.59 0 175.68 0h-53.32c-10.91 0-19.84 8.7-19.84 19.36 0 10.64 8.93 19.34 19.84 19.34h7.66v9.59a149.01 149.01 0 0 0-128.84 129 148.93 148.93 0 0 0 92.54 157.08 149.04 149.04 0 0 0 175.33-50.1 148.94 148.94 0 0 0-4.46-182.23ZM149.02 306.19a110.19 110.19 0 0 1-101.79-68 110.12 110.12 0 0 1 80.3-150.17 110.2 110.2 0 0 1 113.1 46.85 110.12 110.12 0 0 1-13.72 139.07 110.18 110.18 0 0 1-77.9 32.25Z" fill="#DEDEDE"/><circle cx="149" cy="196" r="117" stroke="#D22856" stroke-width="18"/><path d="M145.13 239H85.25v-12.6l21.5-21.74c6.37-6.52 10.53-11.03 12.48-13.53a30.31 30.31 0 0 0 4.22-7.03 17.84 17.84 0 0 0 1.3-6.68c0-3.44-.97-6-2.88-7.68-1.87-1.68-4.4-2.52-7.56-2.52-3.32 0-6.54.76-9.67 2.29a49.85 49.85 0 0 0-9.78 6.5l-9.84-11.66c4.21-3.6 7.71-6.13 10.48-7.62a37.62 37.62 0 0 1 9.09-3.4 45.49 45.49 0 0 1 11.01-1.23c5.35 0 10.08.98 14.18 2.94a22.63 22.63 0 0 1 9.55 8.2 21.79 21.79 0 0 1 3.4 12.07c0 3.94-.7 7.66-2.1 11.13a41.7 41.7 0 0 1-6.45 10.6c-2.9 3.64-8.01 8.81-15.36 15.53l-11.01 10.38v.82h37.32V239Zm70.5-17.75H205.3V239h-17.7v-17.75h-36.56v-12.6l37.56-55.31h16.7v53.84h10.31v14.07Zm-28.02-14.07v-14.53c0-2.42.1-5.94.3-10.55.2-4.6.35-7.28.47-8.02h-.47a65.26 65.26 0 0 1-5.22 9.37L167 207.18h20.62Z" fill="#D22856"/></g></symbol><symbol id="timer-tablet"><g fill="none"><path d="m211.31 81.63 4.28-4.29c6.16-6.17 7.29-15.15 2.5-19.94-4.8-4.79-13.76-3.68-19.91 2.5l-4.3 4.3a118.27 118.27 0 0 0-59.7-25.57v-7.67h6.13c8.7 0 15.84-6.97 15.84-15.48 0-8.5-7.13-15.48-15.84-15.48H97.72c-8.71 0-15.84 6.97-15.84 15.48 0 8.52 7.13 15.48 15.84 15.48h6.12v7.67a118.94 118.94 0 0 0-69.05 34 119.31 119.31 0 0 0-18.32 144.68 119.05 119.05 0 0 0 58.38 50.19 118.84 118.84 0 0 0 76.85 3.91 118.99 118.99 0 0 0 63.18-43.99 119.28 119.28 0 0 0-3.57-145.8Zm-92.3 163.32a87.9 87.9 0 0 1-48.88-14.85A88.23 88.23 0 0 1 56.8 94.53a87.95 87.95 0 0 1 95.89-19.1 88.01 88.01 0 0 1 39.49 32.45 88.2 88.2 0 0 1-10.95 111.26 87.92 87.92 0 0 1-62.22 25.8Z" fill="#DEDEDE"/><circle cx="119" cy="157" r="93" stroke="#D22856" stroke-width="16"/><path d="M115.9 191H68v-10.08l17.2-17.39c5.1-5.22 8.42-8.83 9.99-10.83a24.27 24.27 0 0 0 3.37-5.62c.69-1.72 1.03-3.5 1.03-5.35 0-2.75-.76-4.8-2.3-6.14-1.5-1.34-3.5-2.01-6.04-2.01-2.66 0-5.23.6-7.73 1.83a39.92 39.92 0 0 0-7.83 5.2l-7.88-9.33c3.38-2.87 6.17-4.9 8.4-6.1a30.07 30.07 0 0 1 7.26-2.71c2.62-.66 5.56-.99 8.81-.99 4.28 0 8.06.79 11.34 2.35a18.1 18.1 0 0 1 7.65 6.56 17.43 17.43 0 0 1 2.71 9.66c0 3.15-.56 6.12-1.68 8.9a33.4 33.4 0 0 1-5.16 8.49c-2.31 2.9-6.4 7.04-12.28 12.42l-8.81 8.3v.65h29.86V191Zm56.4-14.2h-8.25V191h-14.16v-14.2h-29.25v-10.08l30.05-44.25h13.36v43.08h8.25v11.25Zm-22.4-11.25v-11.63c0-1.94.07-4.75.22-8.44.16-3.68.29-5.82.38-6.42h-.38a52.2 52.2 0 0 1-4.17 7.5l-12.56 18.99h16.5Z" fill="#D22856"/></g></symbol><symbol id="advantages-back"><g fill="none"><path fill="#F2F2F2" d="M0 0h300v189H0z"/></g></symbol><symbol id="index-gray-background-tablet"><g fill="none"><path d="M-270 97.203 930 0v695H-270V97.203Z" fill="#F2F2F2"/></g></symbol><symbol id="index-grey-background"><g fill="none"><path d="M-426 115.804 746 0v828H-426V115.804Z" fill="#F2F2F2"/></g></symbol><symbol id="favicon"><g fill="none"><rect width="32" height="32" rx="8" fill="#EEE"/><path fill-rule="evenodd" clip-rule="evenodd" d="m25.922 10.543 2.05 8.602a.577.577 0 0 1-.09.528.56.56 0 0 1-.481.217h-1.63c-.28 2.364-2.266 4.196-4.673 4.196-2.408 0-4.393-1.832-4.674-4.196h-.8c-.28 2.392-2.287 4.246-4.722 4.246-2.438 0-4.448-1.86-4.723-4.258h-1.59a.555.555 0 0 1-.469-.218.577.577 0 0 1-.097-.515l2.054-8.601c.142-.947 1.03-2.68 3.409-2.68a.59.59 0 0 1 .42.177.61.61 0 0 1 0 .855.59.59 0 0 1-.42.177c-1.915 0-2.212 1.503-2.236 1.668l-1.891 7.945h.827c.304-2.367 2.3-4.194 4.716-4.194 2.416 0 4.41 1.825 4.716 4.19l.813.003c.303-2.338 2.277-4.144 4.667-4.144 2.394 0 4.37 1.813 4.668 4.158v-.021h.87l-1.887-7.937c-.028-.165-.314-1.668-2.236-1.668a.59.59 0 0 1-.42-.177.61.61 0 0 1 0-.855.59.59 0 0 1 .42-.177c2.378 0 3.266 1.733 3.409 2.68Zm-11.48 9.347a3.702 3.702 0 0 0-.008-1.208c-.295-1.706-1.764-3.003-3.532-3.003s-3.238 1.298-3.532 3.006a3.709 3.709 0 0 0-.01 1.196c.27 1.738 1.753 3.068 3.542 3.068 1.787 0 3.268-1.325 3.54-3.059Zm10.147 0c.03-.188.045-.38.045-.576 0-1.98-1.583-3.586-3.536-3.586-1.954 0-3.537 1.605-3.537 3.586 0 .196.015.389.046.576.271 1.706 1.731 3.01 3.49 3.01 1.76 0 3.22-1.304 3.492-3.01Z" fill="#000"/></g></symbol><symbol id="logo__desktop" viewBox="0 0 147 40"><g fill="none"><path d="M72.2 18.42c0-.33.13-.65.36-.89.24-.23.56-.37.9-.38h7.21c5.11 0 8.48 2.68 8.48 7.06v.06c0 4.8-4.08 7.29-8.9 7.29h-5.5v6.73a1.24 1.24 0 0 1-.33.97 1.29 1.29 0 0 1-1.46.3 1.29 1.29 0 0 1-.7-.75 1.24 1.24 0 0 1-.07-.52V18.42Zm8.15 10.87c3.75 0 6.2-1.98 6.2-4.94v-.06c0-3.18-2.41-4.83-6.02-4.83H74.8v9.79l5.55.04Zm13.67-11.02a1.24 1.24 0 0 1 .33-.97 1.29 1.29 0 0 1 .95-.4 1.3 1.3 0 0 1 .95.4 1.26 1.26 0 0 1 .33.97v20.02a1.25 1.25 0 0 1-.33.97 1.28 1.28 0 0 1-.95.4 1.3 1.3 0 0 1-.95-.4 1.26 1.26 0 0 1-.33-.97V18.27Zm9.18.03c0-.33.14-.64.38-.87.23-.23.55-.36.88-.37h.36a1.58 1.58 0 0 1 1.3.73l13.74 17.23V18.24c0-.33.13-.64.37-.87a1.26 1.26 0 0 1 1.76 0c.23.23.36.54.36.87v20.1a1.09 1.09 0 0 1-.32.82 1.15 1.15 0 0 1-.84.34h-.13a1.74 1.74 0 0 1-1.33-.77l-14.06-17.64v17.24c0 .32-.13.62-.35.85-.23.23-.53.37-.86.39-.32-.01-.64-.14-.87-.37a1.21 1.21 0 0 1-.35-.87V18.3h-.04Zm25.54-.03a1.24 1.24 0 0 1 .33-.97 1.29 1.29 0 0 1 .95-.4 1.3 1.3 0 0 1 .95.4 1.25 1.25 0 0 1 .33.97v12.17l12.9-13a1.5 1.5 0 0 1 1-.45c.33.02.64.15.87.38.23.23.36.54.37.87a1.26 1.26 0 0 1-.42.89l-8.04 7.82 8.67 10.42c.22.26.35.59.35.93a1.27 1.27 0 0 1-.41.91 1.32 1.32 0 0 1-.95.36 1.26 1.26 0 0 1-1-.58l-8.46-10.36-4.88 4.8v4.84a1.24 1.24 0 0 1-.79 1.16 1.3 1.3 0 0 1-1.66-.68c-.07-.15-.1-.31-.1-.48v-20h-.01Z" fill="#fff"/><path d="M98.94 9.75c-.97 0-1.9-.38-2.57-1.05a3.55 3.55 0 0 1-1.08-2.53c0 .95-.38 1.86-1.06 2.53a3.67 3.67 0 0 1-2.57 1.05c.96 0 1.89.38 2.57 1.05a3.55 3.55 0 0 1 1.06 2.53c0-.95.4-1.86 1.07-2.53a3.69 3.69 0 0 1 2.58-1.05Z" fill="#D22856"/><path d="M43.29 19.07h.73a2.47 2.47 0 0 0-2.14-1.22 2.03 2.03 0 0 1-1.9-1.33c-.72.2-1.42.48-2.1.8h.2c.53 0 1.04.22 1.41.59.38.37.6.87.6 1.4v.28a8.98 8.98 0 0 1 3.2-.52Z" fill="#fff"/><path d="M60.73 27.65 55.54 6.57C55.18 4.25 52.93 0 46.9 0c-.4 0-.78.16-1.06.43a1.47 1.47 0 0 0 0 2.1c.28.28.66.43 1.06.43 4.87 0 5.6 3.69 5.67 4.09l4.78 19.45h-2.1a11.72 11.72 0 0 0-5.32-8.41 2.5 2.5 0 0 0-1.54 2.27 2 2 0 0 1 0 .26 9.15 9.15 0 0 1 4.02 7.37c0 .5-.06 1-.14 1.48a8.85 8.85 0 0 1-3.05 5.4 9.13 9.13 0 0 1-11.77 0 8.85 8.85 0 0 1-3.05-5.4 9.03 9.03 0 0 1-.14-1.48 9.1 9.1 0 0 1 .95-3.95c-.5-.03-.98-.26-1.33-.62a1.96 1.96 0 0 1-.54-1.35.7.7 0 0 0-.19-.49 11.57 11.57 0 0 0-1.8 4.94H29.5a11.78 11.78 0 0 0-3.94-7.54 12.17 12.17 0 0 0-16.1 0 11.78 11.78 0 0 0-3.93 7.54H3.44l4.8-19.47c.05-.4.8-4.09 5.66-4.09.4 0 .78-.15 1.06-.43a1.47 1.47 0 0 0 0-2.1A1.52 1.52 0 0 0 13.9 0C7.87 0 5.62 4.25 5.26 6.57L.06 27.65A1.38 1.38 0 0 0 .3 28.9a1.42 1.42 0 0 0 1.2.53h4c.08.61.21 1.22.38 1.81.07-.1.1-.23.1-.35A2.03 2.03 0 0 1 8.5 29a8.84 8.84 0 0 1 .06-2.53 8.85 8.85 0 0 1 3.04-5.41 9.13 9.13 0 0 1 11.8 0 8.85 8.85 0 0 1 3.03 5.41 8.87 8.87 0 0 1-2.53 7.75 9.18 9.18 0 0 1-6.38 2.62 9.15 9.15 0 0 1-5.45-1.7c-.36.3-.83.47-1.3.48-.2 0-.4.08-.53.22a.73.73 0 0 0-.22.52c0 .27-.06.54-.18.8a12.09 12.09 0 0 0 7.64 2.7c2.95.01 5.8-1.04 8.02-2.95a11.79 11.79 0 0 0 4-7.44h1.82c.34 2.9 1.74 5.57 3.95 7.51a12.17 12.17 0 0 0 16.06 0 11.78 11.78 0 0 0 3.95-7.5h4.02a1.44 1.44 0 0 0 1.22-.54 1.38 1.38 0 0 0 .22-1.3Z" fill="#fff"/><path d="M50.92 15.92a4.58 4.58 0 0 1-4.18-2.74 4.37 4.37 0 0 1-.34-1.7 4.4 4.4 0 0 1-1.33 3.14c-.84.83-2 1.3-3.19 1.3 1.2 0 2.35.47 3.2 1.3a4.42 4.42 0 0 1 1.32 3.14c0-1.18.48-2.3 1.32-3.14.85-.83 2-1.3 3.2-1.3Zm-12.85 3.46c-.73 0-1.43-.28-1.95-.8a2.7 2.7 0 0 1-.8-1.91c0 .72-.3 1.4-.81 1.91-.52.51-1.22.8-1.95.8.73 0 1.43.29 1.95.8.51.5.8 1.2.8 1.9 0-.71.3-1.4.81-1.9.52-.51 1.22-.8 1.95-.8ZM10.79 33.64c-.73 0-1.43-.3-1.95-.8a2.7 2.7 0 0 1-.8-1.91c0 .71-.29 1.4-.8 1.91-.52.51-1.22.8-1.95.8.73 0 1.43.3 1.95.8.51.5.8 1.2.8 1.92 0-.72.3-1.4.8-1.92.52-.5 1.22-.8 1.95-.8Z" fill="#D22856"/></g></symbol><symbol id="logo__footer-desktop"><g fill="none"><path d="M72.2 18.43c0-.34.13-.66.36-.9.24-.23.56-.37.9-.38h7.21c5.11 0 8.48 2.68 8.48 7.06v.06c0 4.8-4.08 7.29-8.9 7.29h-5.5v6.73a1.24 1.24 0 0 1-.33.97 1.29 1.29 0 0 1-1.46.3 1.29 1.29 0 0 1-.7-.75 1.24 1.24 0 0 1-.07-.52V18.43Zm8.15 10.86c3.75 0 6.2-1.98 6.2-4.94v-.06c0-3.18-2.41-4.83-6.02-4.83H74.8v9.79l5.55.04Zm13.67-11.02a1.24 1.24 0 0 1 .33-.97 1.29 1.29 0 0 1 1.47-.3 1.29 1.29 0 0 1 .7.75c.05.17.08.34.06.52v20.02a1.25 1.25 0 0 1-.33.97 1.29 1.29 0 0 1-.95.4 1.3 1.3 0 0 1-.95-.4 1.26 1.26 0 0 1-.33-.97V18.27Zm9.18.03c0-.33.14-.64.38-.87.23-.23.55-.36.88-.37h.36a1.58 1.58 0 0 1 1.3.73l13.74 17.23V18.24c0-.33.13-.64.37-.87a1.26 1.26 0 0 1 1.76 0c.23.23.36.54.36.87v20.1a1.09 1.09 0 0 1-.32.82 1.15 1.15 0 0 1-.84.34h-.13a1.74 1.74 0 0 1-1.33-.77l-14.06-17.64v17.24c0 .32-.13.62-.35.85-.23.23-.53.37-.86.38a1.21 1.21 0 0 1-1.22-1.23V18.3h-.04Zm25.54-.03a1.26 1.26 0 0 1 1.28-1.38 1.3 1.3 0 0 1 .95.41 1.25 1.25 0 0 1 .33.97v12.17l12.9-13a1.5 1.5 0 0 1 1-.45c.33.02.64.15.87.38.23.23.36.54.37.87a1.24 1.24 0 0 1-.42.89l-8.04 7.82 8.67 10.42c.22.26.35.6.35.93a1.28 1.28 0 0 1-.85 1.18 1.23 1.23 0 0 1-1.51-.49l-8.45-10.36-4.89 4.8v4.84a1.22 1.22 0 0 1-.37.89 1.27 1.27 0 0 1-.9.37 1.3 1.3 0 0 1-1.18-.78c-.07-.15-.1-.31-.1-.48v-20h-.01Z" fill="#283645"/><path d="M98.94 9.75c-.97 0-1.9-.38-2.57-1.05a3.55 3.55 0 0 1-1.08-2.53c0 .95-.38 1.86-1.06 2.53a3.67 3.67 0 0 1-2.57 1.05c.96 0 1.89.38 2.57 1.05a3.55 3.55 0 0 1 1.06 2.53c0-.95.4-1.86 1.07-2.53a3.69 3.69 0 0 1 2.58-1.05Zm-55.65 9.32h.73a2.47 2.47 0 0 0-2.14-1.22 2.03 2.03 0 0 1-1.9-1.33c-.72.2-1.42.48-2.1.8h.2c.53 0 1.04.22 1.41.59.38.37.6.87.6 1.4v.28a8.97 8.97 0 0 1 3.2-.52Z" fill="#D22856"/><path d="M60.73 27.65 55.54 6.57C55.18 4.25 52.93 0 46.9 0c-.4 0-.78.16-1.06.43a1.47 1.47 0 0 0 0 2.1c.28.28.66.43 1.06.43 4.87 0 5.6 3.69 5.67 4.09l4.78 19.45h-2.1a11.72 11.72 0 0 0-5.32-8.41 2.5 2.5 0 0 0-1.54 2.27 2 2 0 0 1 0 .26 9.15 9.15 0 0 1 4.02 7.37c0 .5-.06 1-.14 1.48a8.85 8.85 0 0 1-3.05 5.4 9.13 9.13 0 0 1-11.77 0 8.85 8.85 0 0 1-3.05-5.4 9.03 9.03 0 0 1-.14-1.48 9.1 9.1 0 0 1 .95-3.95c-.5-.03-.98-.26-1.33-.62a1.96 1.96 0 0 1-.54-1.35.7.7 0 0 0-.19-.49 11.57 11.57 0 0 0-1.8 4.94H29.5a11.78 11.78 0 0 0-3.94-7.54 12.17 12.17 0 0 0-16.1 0 11.78 11.78 0 0 0-3.93 7.54H3.44l4.8-19.47c.05-.4.8-4.09 5.66-4.09.4 0 .78-.15 1.06-.43a1.47 1.47 0 0 0 0-2.1A1.52 1.52 0 0 0 13.9 0C7.87 0 5.62 4.25 5.26 6.57L.06 27.65A1.38 1.38 0 0 0 .3 28.9a1.42 1.42 0 0 0 1.2.53h4c.08.61.21 1.22.38 1.81.07-.1.1-.23.1-.35a2.03 2.03 0 0 1 2.5-1.92 8.54 8.54 0 0 1 .06-2.47 8.85 8.85 0 0 1 3.04-5.41 9.13 9.13 0 0 1 11.8 0 8.85 8.85 0 0 1 3.03 5.41 8.78 8.78 0 0 1-1.2 6.18 9.17 9.17 0 0 1-13.16 2.44c-.36.31-.82.48-1.3.49-.2 0-.4.08-.53.22a.73.73 0 0 0-.22.52c0 .27-.06.54-.18.8a12.09 12.09 0 0 0 7.64 2.7c2.95.01 5.8-1.04 8.02-2.95a11.79 11.79 0 0 0 4-7.44h1.82c.34 2.9 1.74 5.57 3.95 7.51a12.17 12.17 0 0 0 16.06 0 11.78 11.78 0 0 0 3.95-7.5h4.02a1.44 1.44 0 0 0 1.22-.54 1.38 1.38 0 0 0 .22-1.3Z" fill="#D22856"/><path d="M50.92 15.92a4.58 4.58 0 0 1-3.2-1.3 4.43 4.43 0 0 1-1.32-3.14 4.4 4.4 0 0 1-1.33 3.14c-.84.83-2 1.3-3.19 1.3 1.2 0 2.35.47 3.2 1.3a4.42 4.42 0 0 1 1.32 3.14c0-1.18.48-2.3 1.32-3.14.85-.83 2-1.3 3.2-1.3Zm-12.85 3.46c-.73 0-1.43-.28-1.95-.8a2.7 2.7 0 0 1-.8-1.91c0 .72-.3 1.4-.81 1.91-.52.51-1.22.8-1.95.8.73 0 1.43.29 1.95.8.51.5.8 1.2.8 1.9 0-.71.3-1.4.81-1.9.52-.51 1.22-.8 1.95-.8ZM10.79 33.64c-.73 0-1.43-.3-1.95-.8a2.7 2.7 0 0 1-.8-1.91c0 .71-.29 1.4-.8 1.91-.52.51-1.22.8-1.95.8.73 0 1.43.3 1.95.8.51.5.8 1.2.8 1.92 0-.72.3-1.4.8-1.92.52-.5 1.22-.8 1.95-.8Z" fill="#283645"/></g></symbol><symbol id="logo__footer-tablet" viewBox="0 0 145 40"><g fill="none"><path d="M71 18.55a1.29 1.29 0 0 1 1.26-1.29h7.13c5.06 0 8.39 2.7 8.39 7.13v.06c0 4.85-4.04 7.36-8.8 7.36h-5.44v6.8A1.28 1.28 0 0 1 72.27 40 1.27 1.27 0 0 1 71 38.61V18.55Zm8.07 10.97c3.7 0 6.14-2 6.14-4.99v-.06c0-3.2-2.4-4.87-5.96-4.87H73.6v9.88l5.48.04ZM92.6 18.39A1.28 1.28 0 0 1 93.85 17a1.27 1.27 0 0 1 1.27 1.39V38.6a1.28 1.28 0 0 1-1.26 1.4 1.27 1.27 0 0 1-1.27-1.39V18.4Zm9.07.03a1.28 1.28 0 0 1 1.26-1.25h.34a1.53 1.53 0 0 1 1.29.74l13.6 17.4V18.36a1.24 1.24 0 0 1 1.23-1.24 1.23 1.23 0 0 1 1.23 1.24v20.3a1.16 1.16 0 0 1-.32.83 1.13 1.13 0 0 1-.83.34h-.13a1.69 1.69 0 0 1-1.31-.78l-13.91-17.8v17.4a1.26 1.26 0 0 1-1.2 1.25 1.23 1.23 0 0 1-1.2-1.25V18.42h-.05Zm25.27-.03A1.28 1.28 0 0 1 128.2 17a1.27 1.27 0 0 1 1.26 1.39v12.3l12.76-13.14c.26-.27.62-.43 1-.45a1.27 1.27 0 0 1 1.21 1.26 1.3 1.3 0 0 1-.41.9l-7.95 7.9 8.57 10.52c.23.26.35.6.35.94a1.33 1.33 0 0 1-.4.92 1.29 1.29 0 0 1-.94.36 1.23 1.23 0 0 1-1-.58l-8.36-10.46-4.83 4.85v4.88a1.28 1.28 0 0 1-.78 1.17 1.26 1.26 0 0 1-1.74-1.17V18.4h-.01Z" fill="#283645"/><path fill-rule="evenodd" clip-rule="evenodd" d="m53.9 6.59 5.03 21.14a1.42 1.42 0 0 1-.75 1.72c-.2.09-.43.13-.65.11h-4.01a11.63 11.63 0 0 1-11.49 10.32c-5.92 0-10.8-4.5-11.49-10.32h-1.96A11.75 11.75 0 0 1 16.97 40c-6 0-10.94-4.57-11.61-10.47H1.45A1.36 1.36 0 0 1 .3 29a1.42 1.42 0 0 1-.24-1.27L5.1 6.6C5.46 4.26 7.64 0 13.5 0c.38 0 .76.16 1.03.44a1.5 1.5 0 0 1 0 2.1c-.27.27-.65.43-1.03.43-4.71 0-5.44 3.7-5.5 4.1L3.34 26.6h2.03a11.75 11.75 0 0 1 11.6-10.3c5.94 0 10.84 4.48 11.6 10.3h1.99a11.63 11.63 0 0 1 11.47-10.19c5.89 0 10.75 4.46 11.48 10.23v-.06h2.14L51 7.08c-.07-.41-.77-4.1-5.5-4.1-.39 0-.76-.17-1.03-.44a1.5 1.5 0 0 1 0-2.1c.27-.28.64-.44 1.03-.44 5.85 0 8.03 4.26 8.38 6.59ZM25.66 29.56a9.12 9.12 0 0 0-.02-2.97 8.85 8.85 0 0 0-8.68-7.38 8.85 8.85 0 0 0-8.82 8.94 8.85 8.85 0 0 0 8.81 8.94c4.4 0 8.04-3.26 8.71-7.53Zm24.94 0a8.75 8.75 0 0 0-8.58-10.23 8.75 8.75 0 0 0-8.58 10.23 8.73 8.73 0 0 0 8.58 7.4c4.33 0 7.91-3.2 8.58-7.4Z" fill="#D22856"/></g></symbol><symbol id="logo__mobile" viewBox="0 0 74 23"><g fill="none"><path d="M0 1.55A1.29 1.29 0 0 1 1.26.26h7.13c5.06 0 8.39 2.7 8.39 7.13v.06c0 4.85-4.04 7.36-8.8 7.36H2.53v6.8A1.28 1.28 0 0 1 1.27 23 1.27 1.27 0 0 1 0 21.61V1.55Zm8.07 10.97c3.7 0 6.14-2 6.14-4.99v-.06c0-3.2-2.4-4.87-5.96-4.87H2.6v9.88l5.48.04ZM21.6 1.39A1.28 1.28 0 0 1 22.85 0a1.27 1.27 0 0 1 1.27 1.39V21.6a1.28 1.28 0 0 1-1.26 1.4 1.27 1.27 0 0 1-1.27-1.39V1.4Zm9.07.03A1.28 1.28 0 0 1 31.93.17h.34a1.54 1.54 0 0 1 1.29.74l13.6 17.4V1.36A1.24 1.24 0 0 1 48.39.12a1.23 1.23 0 0 1 1.23 1.24v20.3a1.14 1.14 0 0 1-1.15 1.17h-.13a1.7 1.7 0 0 1-1.31-.78L33.12 4.25v17.4a1.26 1.26 0 0 1-1.2 1.25 1.23 1.23 0 0 1-1.2-1.25V1.42h-.05Zm25.27-.03A1.28 1.28 0 0 1 57.2 0a1.27 1.27 0 0 1 1.26 1.39v12.3L71.23.54c.26-.27.62-.43 1-.45a1.27 1.27 0 0 1 1.21 1.26 1.29 1.29 0 0 1-.41.9l-7.95 7.9 8.57 10.52c.23.26.35.6.35.94a1.31 1.31 0 0 1-1.34 1.28 1.23 1.23 0 0 1-1-.58L63.3 11.86l-4.83 4.85v4.88a1.27 1.27 0 0 1-1.26 1.27 1.26 1.26 0 0 1-1.26-1.27V1.4h-.01Z" fill="#fff"/></g></symbol><symbol id="logo__tablet" viewBox="0 0 145 40"><g fill="none"><path fill-rule="evenodd" clip-rule="evenodd" d="m53.9 6.59 5.03 21.14a1.42 1.42 0 0 1-.75 1.72c-.2.09-.43.13-.65.11h-4.01a11.63 11.63 0 0 1-11.49 10.32c-5.92 0-10.8-4.5-11.49-10.32h-1.96A11.75 11.75 0 0 1 16.97 40c-6 0-10.94-4.57-11.61-10.47H1.45A1.36 1.36 0 0 1 .3 29a1.42 1.42 0 0 1-.24-1.27L5.1 6.6C5.46 4.26 7.64 0 13.5 0c.38 0 .76.16 1.03.44a1.5 1.5 0 0 1 0 2.1c-.27.27-.65.43-1.03.43-4.71 0-5.44 3.7-5.5 4.1L3.34 26.6h2.03a11.75 11.75 0 0 1 11.6-10.3c5.94 0 10.84 4.48 11.6 10.3h1.99a11.63 11.63 0 0 1 11.47-10.19c5.89 0 10.75 4.46 11.48 10.23v-.06h2.14L51 7.08c-.07-.41-.77-4.1-5.5-4.1-.39 0-.76-.17-1.03-.44a1.5 1.5 0 0 1 0-2.1c.27-.28.64-.44 1.03-.44 5.85 0 8.03 4.26 8.38 6.59ZM25.66 29.56a9.12 9.12 0 0 0-.02-2.97 8.85 8.85 0 0 0-8.68-7.38 8.85 8.85 0 0 0-8.82 8.94 8.85 8.85 0 0 0 8.81 8.94c4.4 0 8.04-3.26 8.71-7.53Zm24.94 0a8.75 8.75 0 0 0-8.58-10.23 8.75 8.75 0 0 0-8.58 10.23 8.73 8.73 0 0 0 8.58 7.4c4.33 0 7.91-3.2 8.58-7.4Z" fill="#fff"/><path d="M71 18.55a1.29 1.29 0 0 1 1.26-1.29h7.13c5.06 0 8.39 2.7 8.39 7.13v.06c0 4.85-4.04 7.36-8.8 7.36h-5.44v6.8A1.28 1.28 0 0 1 72.27 40 1.27 1.27 0 0 1 71 38.61V18.55Zm8.07 10.97c3.7 0 6.14-2 6.14-4.99v-.06c0-3.2-2.4-4.87-5.96-4.87H73.6v9.88l5.48.04ZM92.6 18.39A1.28 1.28 0 0 1 93.85 17a1.27 1.27 0 0 1 1.27 1.39V38.6a1.28 1.28 0 0 1-1.26 1.4 1.27 1.27 0 0 1-1.27-1.39V18.4Zm9.07.03a1.28 1.28 0 0 1 1.26-1.25h.34a1.53 1.53 0 0 1 1.29.74l13.6 17.4V18.36a1.24 1.24 0 0 1 1.23-1.24 1.23 1.23 0 0 1 1.23 1.24v20.3a1.16 1.16 0 0 1-.32.83 1.13 1.13 0 0 1-.83.34h-.13a1.69 1.69 0 0 1-1.31-.78l-13.91-17.8v17.4a1.26 1.26 0 0 1-1.2 1.25 1.23 1.23 0 0 1-1.2-1.25V18.42h-.05Zm25.27-.03A1.28 1.28 0 0 1 128.2 17a1.27 1.27 0 0 1 1.26 1.39v12.3l12.76-13.14c.26-.27.62-.43 1-.45a1.27 1.27 0 0 1 1.21 1.26 1.3 1.3 0 0 1-.41.9l-7.95 7.9 8.57 10.52c.23.26.35.6.35.94a1.33 1.33 0 0 1-.4.92 1.29 1.29 0 0 1-.94.36 1.23 1.23 0 0 1-1-.58l-8.36-10.46-4.83 4.85v4.88a1.28 1.28 0 0 1-.78 1.17 1.26 1.26 0 0 1-1.74-1.17V18.4h-.01Z" fill="#fff"/></g></symbol><symbol id="catalog__like-icon"><g fill="none"><path d="M6.469 12a.782.782 0 0 1-.58-.25C1.958 7.42 1.036 6.44.86 6.17A3.765 3.765 0 0 1 0 3.8a3.723 3.723 0 0 1 .63-2.045A3.921 3.921 0 0 1 2.3.355 4.09 4.09 0 0 1 4.487.035 4.031 4.031 0 0 1 6.51.9 4.08 4.08 0 0 1 9.07 0a4.013 4.013 0 0 1 2.78 1.117A3.733 3.733 0 0 1 13 3.8a3.409 3.409 0 0 1-.923 2.38l-5.038 5.56a.757.757 0 0 1-.57.25V12ZM2.073 5.28c.218.26 2.56 2.84 4.396 4.86l4.478-4.94a1.96 1.96 0 0 0 .539-1.4c0-.618-.254-1.21-.707-1.648A2.461 2.461 0 0 0 9.07 1.47c-.38.003-.756.09-1.097.252-.341.163-.64.398-.873.688a.844.844 0 0 1-.612.28.757.757 0 0 1-.332-.082.729.729 0 0 1-.258-.218 2.43 2.43 0 0 0-.868-.682 2.49 2.49 0 0 0-2.372.132 2.369 2.369 0 0 0-.882.968 2.267 2.267 0 0 0 .296 2.462v.01Z" fill="#D22856"/></g></symbol><symbol id="photo-editor-contrast"><g fill="none"><path d="M16 4a12 12 0 1 1 0 24 12 12 0 0 1 0-24Zm0-4a16 16 0 1 0 0 32 16 16 0 0 0 0-32Z" fill="#D22856"/><path d="M16 24.29a8.52 8.52 0 0 0 0-17" fill="#D22856"/></g></symbol><symbol id="photo-editor-fill"><g fill="none"><path d="M33.12 17.88 15.24 0l-2.83 2.83 4.76 4.76L6.88 17.88a3 3 0 0 0 0 4.24l11 11a3 3 0 0 0 4.24 0l11-11a3 3 0 0 0 0-4.24ZM10.41 20 20 10.42 29.59 20H10.41ZM38 23s-4 4.33-4 7a4 4 0 1 0 8 0c0-2.67-4-7-4-7ZM48 40H0v3h48v-3Z" fill="#D22856"/></g></symbol><symbol id="photoeditor-crop"><g fill="none"><path d="M32 28h4V12a4 4 0 0 0-4-4H16v4h16v16Zm-20 4V0H8v8H0v4h8v20a4 4 0 0 0 4 4h20v8h4v-8h8v-4H12Z" fill="#D22856"/></g></symbol></svg>